# xmcd CD database file
#
# Track frame offsets:
#	150
#	17410
#	37265
#	58230
#	77505
#	103087
#	127995
#	148912
#	167487
#
# Disc length: 2768 seconds
#
# Revision: 9
# Processed by: cddbd v1.5.2PL0 Copyright (c) Steve Scherf et al.
# Submitted via: CDex 1.70beta2
#
DISCID=750ace09
DTITLE=Riot - Thundersteel
DYEAR=1988
DGENRE=Melodic Metal
TTITLE0=Thundersteel
TTITLE1=Fight Or Fall
TTITLE2=Sign Of The Crimson Storm
TTITLE3=Flight Of The Warrior
TTITLE4=On Wings Of Eagles
TTITLE5=Johnny's Back
TTITLE6=Bloodstreets
TTITLE7=Run For Your Life
TTITLE8=Buried Alive (Tell Tale Heart)
EXTD=YEAR: 1988
EXTT0=
EXTT1=
EXTT2=
EXTT3=
EXTT4=
EXTT5=
EXTT6=
EXTT7=
EXTT8=
PLAYORDER=
